<?xml version="1.0" encoding="utf-8"?>
<!-- Generator: Adobe Illustrator 19.0.0, SVG Export Plug-In . SVG Version: 6.00 Build 0)  -->
<svg version="1.1" id="Layer_2_1_" xmlns="http://www.w3.org/2000/svg" xmlns:xlink="http://www.w3.org/1999/xlink" x="0px" y="0px"
	 viewBox="-92 -648 427 2089" style="enable-background:new -92 -648 427 2089;" xml:space="preserve">
<style type="text/css">
	.st0{font-family:'ArialMT';}
	.st1{font-size:21px;}
	.st2{fill:none;}
	.st3{fill:#7E52A1;}
	.st4{fill:#2F71B8;}
	.st5{fill:#FFC42C;}
	.st6{fill:#62C9F3;}
	.st7{fill:#F06AA2;}
	.st8{fill:#499543;}
	.st9{fill:none;stroke:#000000;stroke-width:2;stroke-linecap:round;stroke-linejoin:round;stroke-miterlimit:10;}
	.st10{fill:#BE1B86;}
	.st11{fill:none;stroke:#2F71B8;stroke-width:2;stroke-linecap:round;stroke-linejoin:round;stroke-miterlimit:10;}
	.st12{fill:none;stroke:#BE1B86;stroke-width:2;stroke-miterlimit:10;}
	.st13{fill:none;stroke:#499543;stroke-width:2;stroke-linecap:round;stroke-linejoin:round;stroke-miterlimit:10;}
	.st14{fill:none;stroke:#7E52A1;stroke-width:2;stroke-linecap:round;stroke-linejoin:round;stroke-miterlimit:10;}
	.st15{fill:none;stroke:#FFC42C;stroke-width:2;stroke-linecap:round;stroke-linejoin:round;stroke-miterlimit:10;}
	.st16{fill:none;stroke:#000000;stroke-width:2;stroke-miterlimit:10;}
	.st17{fill:none;stroke:#000000;stroke-width:2;stroke-miterlimit:10;stroke-dasharray:3.4332,3.4332;}
	.st18{fill:none;stroke:#000000;stroke-width:2;stroke-miterlimit:10;stroke-dasharray:3.614,3.614;}
</style>
<text transform="matrix(1 0 0 1 304.6946 800.7947)" class="st0 st1">4</text>
<rect x="304.7" y="783.8" class="st2" width="12.4" height="18.5"/>
<text transform="matrix(1 0 0 1 -75.8518 243.6345)" class="st0 st1">3</text>
<rect x="-75.9" y="226.6" class="st2" width="12.4" height="18.5"/>
<text transform="matrix(1 0 0 1 304.7708 -331.4973)" class="st0 st1">2</text>
<rect x="304.8" y="-348.5" class="st2" width="12.4" height="18.5"/>
<text transform="matrix(1 0 0 1 -75.6628 -864.8308)" class="st0 st1">1</text>
<rect x="-75.7" y="-881.8" class="st2" width="12.4" height="18.5"/>
<polygon class="st3" points="153.2,-627.2 163.8,-643 172.7,-625.7 "/>
<circle class="st4" cx="68.6" cy="-720.7" r="6.7"/>
<circle class="st5" cx="80.6" cy="-634.9" r="6.3"/>
<rect x="167" y="-693.7" transform="matrix(0.8698 -0.4934 0.4934 0.8698 361.3202 -3.267)" class="st5" width="14.8" height="14.8"/>
<path class="st3" d="M144.1-729.1c0,1-0.8,1.8-1.7,1.8h-10.9c-1,0-1.7-0.8-1.7-1.8v-9.6c0-1,0.8-1.8,1.7-1.8h10.9
	c1,0,1.7,0.8,1.7,1.8V-729.1z"/>
<polygon class="st6" points="63,-649.1 61.9,-661.1 73.2,-656.1 "/>
<polygon class="st7" points="87.6,-706.7 100.5,-714 100.7,-698.8 "/>
<polygon class="st5" points="126.2,-537.6 135.7,-548 140.3,-534.4 "/>
<g>
	<path class="st6" d="M136.3-529.6h-25.2L90-484.3h69.5L136.3-529.6z M117.4-489.2h-9.7v-9.9h9.7V-489.2z M126.6-505.6
		c-3.6,0-6.5-2.9-6.5-6.5c0-3.6,2.9-6.5,6.5-6.5c3.6,0,6.5,2.9,6.5,6.5C133.2-508.5,130.2-505.6,126.6-505.6z"/>
</g>
<polygon class="st3" points="120.6,-552.4 113.7,-556.4 113.7,-564.4 120.6,-568.4 127.6,-564.5 127.6,-556.4 "/>
<polygon class="st7" points="108.9,-612.7 104.2,-628.3 120.4,-624.8 "/>
<path class="st5" d="M93.5-665.3c-0.8,0.8-2.1,0.9-3,0.1l-9.4-9c-0.8-0.8-0.9-2.1,0-3l7.9-8.3c0.8-0.8,2.1-0.9,3-0.1l9.4,9
	c0.8,0.8,0.9,2.1,0,3L93.5-665.3z"/>
<polygon class="st8" points="189.9,-655.9 182.8,-653.9 177.5,-659.1 179.3,-666.3 186.4,-668.3 191.7,-663.1 "/>
<rect x="103.1" y="-661.4" class="st6" width="18.5" height="18.5"/>
<circle class="st5" cx="134.8" cy="-620" r="8.6"/>
<g>
	<g>
		<path class="st9" d="M167.6,1080.3c-3.7,21-22.1,37-44.2,37c-24.8,0-44.9-20.1-44.9-44.9s20.1-44.9,44.9-44.9
			c20.2,0,37.2,13.3,42.9,31.6h111.2c36.8,0,33.4-43.7,33.4-43.7l0-201.1"/>
		<circle class="st4" cx="91" cy="984.1" r="17"/>
		<circle class="st5" cx="189.9" cy="1023.8" r="13.5"/>
		<path class="st3" d="M187.8,1117.3c12.9,0,23.4,10.5,23.4,23.4c0,12.9-10.5,23.4-23.4,23.4c-12.9,0-23.4-10.5-23.4-23.4
			C164.3,1127.8,174.8,1117.3,187.8,1117.3z"/>
		<circle class="st8" cx="81.5" cy="1147.3" r="14.9"/>
		<circle class="st10" cx="29.7" cy="1061.4" r="24.2"/>
		<line class="st11" x1="107.9" y1="1030.3" x2="96.8" y2="1000"/>
		<line class="st12" x1="78.9" y1="1067.2" x2="53.7" y2="1064.3"/>
		<line class="st13" x1="88.1" y1="1134" x2="101.1" y2="1111.4"/>
		<line class="st14" x1="154.2" y1="1105.1" x2="171.7" y2="1123.7"/>
		<line class="st15" x1="179" y1="1031.7" x2="159.6" y2="1045.9"/>
		<circle class="st10" cx="136.3" cy="1179.1" r="12.9"/>
		<circle class="st5" cx="26.9" cy="1122.6" r="10.7"/>
		<circle class="st8" cx="156.6" cy="967.7" r="22.3"/>
		<circle class="st3" cx="37.1" cy="999.3" r="11"/>
		<circle class="st4" cx="220.2" cy="1098.2" r="9"/>
	</g>
	<g>
		<path class="st16" d="M167.6,1080.3c-3.7,21-22.1,37-44.2,37c-24.8,0-44.9-20.1-44.9-44.9s20.1-44.9,44.9-44.9
			c20.2,0,37.2,13.3,42.9,31.6h111.2c36.8,0,33.4-43.7,33.4-43.7l0-201.1"/>
		<circle class="st16" cx="91" cy="984.1" r="17"/>
		<circle class="st16" cx="189.9" cy="1023.8" r="13.5"/>
		<path class="st16" d="M187.8,1117.3c12.9,0,23.4,10.5,23.4,23.4c0,12.9-10.5,23.4-23.4,23.4c-12.9,0-23.4-10.5-23.4-23.4
			C164.3,1127.8,174.8,1117.3,187.8,1117.3z"/>
		<circle class="st16" cx="81.5" cy="1147.3" r="14.9"/>
		<circle class="st16" cx="29.7" cy="1061.4" r="24.2"/>
		<line class="st16" x1="107.9" y1="1030.3" x2="96.8" y2="1000"/>
		<line class="st16" x1="78.9" y1="1067.2" x2="53.7" y2="1064.3"/>
		<line class="st16" x1="88.1" y1="1134" x2="101.1" y2="1111.4"/>
		<line class="st16" x1="154.2" y1="1105.1" x2="171.7" y2="1123.7"/>
		<line class="st16" x1="179" y1="1031.7" x2="159.6" y2="1045.9"/>
		<circle class="st16" cx="136.3" cy="1179.1" r="12.9"/>
		<circle class="st16" cx="26.9" cy="1122.6" r="10.7"/>
		<circle class="st16" cx="156.6" cy="967.7" r="22.3"/>
		<circle class="st16" cx="37.1" cy="999.3" r="11"/>
		<circle class="st16" cx="220.2" cy="1098.2" r="9"/>
	</g>
</g>
<g>
	<path class="st7" d="M117-4.1c5.4,0,9.7,4.3,9.7,9.7c0,5.4-4.3,9.7-9.7,9.7c-5.4,0-9.7-4.3-9.7-9.7C107.3,0.3,111.6-4.1,117-4.1z"
		/>
	<path class="st7" d="M113.4,37.4l1.7-4.5c0-0.1,0-0.2,0.1-0.2c0.6,0,1.2,0.1,1.8,0.1c1.8,0,3.5-0.2,5.2-0.5l2.1,4.3
		c0.7,1.4,2,2.1,3,1.6l9.3-4.5c1-0.5,1.3-2,0.6-3.3l-2.1-4.3c0,0,0,0,0-0.1c1.4-1.3,2.7-2.7,3.9-4.2c0,0,0.1,0,0.1,0.1l4.5,1.6
		c1.4,0.5,2.9,0.1,3.3-0.9l3.5-9.7c0.4-1-0.5-2.3-1.9-2.8l-4.2-1.6c0.1-1,0.2-2.1,0.2-3.1c0-1-0.1-2-0.2-2.9l4.2-1.5
		c1.4-0.5,2.3-1.8,1.9-2.8l-3.5-9.7c-0.4-1-1.8-1.5-3.3-0.9l-4.5,1.6c0,0,0,0,0,0c-1.1-1.5-2.4-2.9-3.8-4.2l2-4.1
		c0.7-1.4,0.4-2.9-0.6-3.3l-9.3-4.5c-1-0.5-2.3,0.2-3,1.6l-1.9,3.9c-1.7-0.3-3.5-0.5-5.4-0.5c-0.7,0-1.3,0.1-1.9,0.1l-1.6-4.3
		c-0.5-1.4-1.8-2.3-2.8-1.9l-9.6,3.6c-1,0.4-1.4,1.8-0.9,3.3l1.5,4c-2.4,1.6-4.4,3.6-6.2,5.9L91.2-13c-1.4-0.6-2.9-0.3-3.3,0.7
		l-4.1,9.4c-0.4,1,0.3,2.3,1.7,2.9l4.3,1.9c-0.1,1.2-0.3,2.3-0.3,3.5c0,1.3,0.1,2.6,0.3,3.9l-4.4,1.9c-1.4,0.6-2.2,1.9-1.7,2.9
		l4.1,9.4c0.4,1,1.9,1.3,3.3,0.7l4.3-1.9c1.7,2.2,3.8,4.1,6.1,5.7l-1.6,4.3c-0.5,1.4-0.1,2.9,0.9,3.3l9.6,3.6
		C111.6,39.7,112.8,38.8,113.4,37.4z M101.7,5.5c0-8.4,6.8-15.2,15.2-15.2c8.4,0,15.2,6.8,15.2,15.2c0,8.4-6.8,15.2-15.2,15.2
		C108.5,20.6,101.7,13.8,101.7,5.5z"/>
</g>
<g>
	<path class="st6" d="M188.7-34.7c7.5,0,13.6,6.1,13.6,13.6c0,7.5-6.1,13.6-13.6,13.6c-7.5,0-13.6-6.1-13.6-13.6
		C175.1-28.6,181.2-34.7,188.7-34.7z"/>
	<path class="st6" d="M199.5,22.5l0-6.7c0-0.1,0-0.2,0-0.3c0.8-0.2,1.6-0.5,2.5-0.8c2.3-0.9,4.5-2,6.6-3.2l4.8,4.6
		c1.5,1.5,3.6,1.8,4.7,0.7l10-10.4c1.1-1.1,0.7-3.2-0.8-4.7L222.4-3c0,0-0.1,0-0.1-0.1c1.3-2.4,2.3-4.8,3.1-7.4c0.1,0,0.1,0,0.2,0
		l6.7,0c2.1,0,3.8-1.3,3.8-2.8l0-14.4c0-1.5-1.7-2.8-3.9-2.8l-6.3,0c-0.4-1.4-0.8-2.8-1.3-4.2c-0.5-1.3-1-2.6-1.7-3.8l4.8-4.1
		c1.6-1.4,2.1-3.5,1.1-4.6l-9.4-11c-1-1.2-3.1-1-4.7,0.4l-5.1,4.3c0,0,0,0,0,0c-2.2-1.5-4.6-2.7-7.1-3.6l0.6-6.4
		c0.2-2.1-0.9-4-2.4-4.1l-14.4-1.3c-1.5-0.1-2.9,1.5-3.1,3.6l-0.6,6.1c-2.5,0.4-4.9,1-7.3,1.9c-0.9,0.3-1.7,0.7-2.5,1.1l-4.3-4.9
		c-1.4-1.6-3.5-2.1-4.6-1.1l-10.9,9.4c-1.2,1-1,3.1,0.4,4.7l3.9,4.5c-2.3,3.3-4.1,6.9-5.3,10.7l-6.3-0.3c-2.1-0.1-3.9,1-4,2.6
		l-0.8,14.4c-0.1,1.5,1.6,2.9,3.7,3l6.6,0.3c0.4,1.6,0.8,3.2,1.4,4.8c0.6,1.7,1.4,3.4,2.3,5l-4.8,4.6c-1.5,1.5-1.9,3.6-0.8,4.7
		l10,10.4c1.1,1.1,3.2,0.8,4.7-0.6l4.8-4.6c3.3,2,7,3.6,10.8,4.5l0,6.4c0,2.1,1.2,3.8,2.8,3.9l14.4,0
		C198.2,26.3,199.5,24.6,199.5,22.5z M168.6-13.9c-4.1-11,1.5-23.3,12.6-27.4c11-4.1,23.3,1.5,27.4,12.6c4.1,11-1.5,23.3-12.6,27.4
		C184.9,2.7,172.7-2.9,168.6-13.9z"/>
</g>
<g>
	<circle class="st5" cx="96.9" cy="-111.3" r="21.4"/>
	<path class="st5" d="M88.9-41.2l3.7-9.9c0.1-0.2,0.1-0.3,0.1-0.5c1.3,0.1,2.7,0.2,4,0.2c3.9,0,7.8-0.4,11.5-1.1l4.5,9.4
		c1.4,3,4.4,4.6,6.6,3.5l20.4-9.8c2.2-1.1,2.8-4.3,1.3-7.4l-4.6-9.5c0-0.1-0.1-0.1-0.1-0.1c3.2-2.8,6-5.9,8.6-9.3
		c0.1,0,0.2,0.1,0.3,0.1l9.9,3.6c3.1,1.2,6.4,0.2,7.2-2l7.8-21.3c0.8-2.3-1-5.1-4.2-6.2l-9.4-3.4c0.3-2.3,0.4-4.5,0.4-6.9
		c0-2.2-0.1-4.4-0.4-6.5l9.3-3.4c3.1-1.2,5-3.9,4.2-6.2l-7.8-21.3c-0.8-2.3-4.1-3.2-7.2-2l-9.9,3.6c0,0,0,0-0.1,0
		c-2.5-3.4-5.3-6.5-8.5-9.3l4.4-9.1c1.4-3,0.8-6.3-1.3-7.4l-20.4-9.8c-2.2-1-5.1,0.5-6.6,3.5l-4.2,8.6c-3.8-0.8-7.8-1.2-11.8-1.2
		c-1.4,0-2.9,0.1-4.3,0.2l-3.6-9.6c-1.2-3.1-4-5-6.2-4.1l-21.3,7.9c-2.3,0.9-3.2,4.1-2,7.2l3.3,8.9c-5.2,3.6-9.8,8-13.7,12.9
		l-9.1-3.9c-3.1-1.3-6.3-0.6-7.3,1.6l-9,20.8c-1,2.2,0.7,5.1,3.8,6.4l9.5,4.1c-0.3,2.5-0.6,5.1-0.6,7.8c0,2.9,0.3,5.7,0.7,8.6
		L27.5-99c-3.1,1.3-4.8,4.2-3.8,6.4l9,20.8c1,2.2,4.2,3,7.3,1.6l9.5-4.1c3.8,4.8,8.3,9,13.4,12.5l-3.6,9.5c-1.2,3.1-0.3,6.3,2,7.2
		l21.3,7.9C84.9-36.3,87.7-38.1,88.9-41.2z M63.2-111.7c0-18.5,15-33.5,33.5-33.5c18.5,0,33.5,15,33.5,33.5
		c0,18.5-15,33.5-33.5,33.5C78.2-78.2,63.2-93.2,63.2-111.7z"/>
</g>
<circle class="st10" cx="143.8" cy="-664.1" r="10.5"/>
<circle class="st4" cx="122.9" cy="-588.8" r="6"/>
<circle class="st8" cx="121.6" cy="-691.4" r="9.8"/>
<g>
	<circle class="st17" cx="310.9" cy="792.5" r="21.9"/>
</g>
<g>
	<circle class="st17" cx="-69.7" cy="235.9" r="21.9"/>
</g>
<g>
	<circle class="st17" cx="311" cy="-340.1" r="21.9"/>
</g>
<g>
	<g>
		<g>
			<circle class="st18" cx="-69.5" cy="-873.8" r="21.9"/>
		</g>
	</g>
	<g>
		<g>
			<circle class="st16" cx="-69.5" cy="-873.8" r="21.9"/>
		</g>
	</g>
</g>
<g>
	<path class="st16" d="M310.9,770.5V566.3c0.6-27-12.3-40.7-34-40.5h-88.4c-4.7,0-9.8-3.7-11.2-8.2l-15.5-49.1
		c-1.4-4.5-3.4-4.4-4.4,0.2L131,595c-1,4.6-2.4,4.6-3.1-0.1L98.5,403.3c-0.7-4.7-2-4.7-2.7,0L72,544.3c-0.8,4.7-2.3,4.7-3.3,0.1
		L42.5,429.5c-1.1-4.6-2.9-4.7-4-0.1L22,494.1c-1.2,4.6-6,8.4-10.8,8.4h-47.7c-21.7-0.2-33-16.2-33-30.3l-0.2-214.5"/>
</g>
<path class="st16" d="M-69.5,214L-69.6,2.6c-1-35.9,30.4-33.4,30.4-33.4h146.5c0,0,30.1,0,40.3-20.9c11.5-23.6,39.2-21.7,39.2-21.7
	h91.9c35.5,0.8,32.2-43.7,32.2-43.7l0.1-201.2"/>
<path class="st16" d="M311-362l0-7l-0.1-197.2c0.6-27-11.3-40.7-33-40.6H159c0,0-18.5-1.5-19.2,13.8c-0.6,13.4-2.8,23.5,8.3,44.6
	c38.4,73,47.5,79.9,12.7,79.9H88.4c-34.7,0-26.3-8.2,12.7-79.9c11.4-20.9,8.9-31.2,8.2-44.6c-0.7-15.3-19.2-13.8-19.2-13.8h-126
	c-21.7-0.2-33.8-16.2-33.8-30.3V-844v-7.9"/>
</svg>
